<svg width="64" height="68" viewBox="0 0 64 68" fill="none" xmlns="http://www.w3.org/2000/svg">
<path d="M30.0722 1.04387C30.0722 1.13301 30.3293 2.49556 30.6377 4.07458C30.959 5.64088 31.2032 6.95249 31.1775 6.96522C31.1646 6.99069 27.4763 7.02889 27.0393 7.00342C26.9622 7.00342 26.6281 6.59593 26.2939 6.11204C25.7028 5.23338 25.6899 5.22065 25.1245 5.22065C24.8032 5.22065 24.5461 5.27159 24.5461 5.32252C24.5461 5.37346 24.8032 6.0611 25.1245 6.85061L25.7028 8.27683L25.1245 9.71578C24.8032 10.5053 24.5461 11.1929 24.5461 11.2439C24.5461 11.2948 24.8032 11.333 25.1245 11.333C25.6899 11.333 25.7028 11.3203 26.2939 10.4416L26.8979 9.55024H29.057C30.2522 9.55024 31.2289 9.56297 31.2289 9.58844C31.2289 9.61391 30.9718 10.9128 30.6506 12.4791C30.3293 14.0454 30.0722 15.4079 30.0722 15.4971C30.0722 15.6117 30.3164 15.6626 30.959 15.6626H31.8457L32.4498 14.4783C33.5293 12.4154 34.506 10.7345 35.1228 9.90679L35.3927 9.55024H37.2947C39.4281 9.55024 39.7237 9.4611 40.0449 8.69706C40.2634 8.18769 40.1349 7.80567 39.5823 7.34724C39.1839 7.01616 39.1453 7.00342 37.359 7.00342H35.5341L33.7606 4.10005C32.7839 2.49556 31.9228 1.12028 31.8457 1.04387C31.6273 0.827393 30.0722 0.840127 30.0722 1.04387Z" fill="#FAFAFA"/>
<path d="M20.3693 8.32777C19.5212 8.62065 18.7244 8.9008 18.6087 8.93901C18.4159 9.01541 18.4288 9.13002 18.7758 10.2124C18.9942 10.8619 19.2641 11.6386 19.3669 11.9188L19.5597 12.4536L21.3718 11.8551C22.3742 11.524 23.1838 11.2057 23.171 11.1547C23.0296 10.5435 22.0529 7.76747 22.0015 7.7802C21.9501 7.7802 21.2175 8.03489 20.3693 8.32777Z" fill="#FAFAFA"/>
<path d="M42.8722 7.86955C42.7566 8.08603 41.7413 11.2313 41.7799 11.2568C41.8056 11.2823 42.5895 11.5497 43.502 11.8426C44.4273 12.1482 45.2369 12.4156 45.3012 12.4411C45.4297 12.4793 46.6249 9.09202 46.5092 9.00288C46.355 8.86281 42.9237 7.79315 42.8722 7.86955Z" fill="#FAFAFA"/>
<path d="M13.3012 11.7918C12.3888 12.263 11.5791 12.6832 11.5277 12.7341C11.4635 12.7851 11.7848 13.5491 12.2217 14.4278L13.0313 16.0195L14.8305 15.1281C15.8329 14.6315 16.6554 14.224 16.6811 14.1986C16.7325 14.1476 15.1133 10.9514 15.0362 10.9514C14.9976 10.9514 14.2265 11.3334 13.3012 11.7918Z" fill="#FAFAFA"/>
<path d="M49.0924 12.4793C48.6683 13.3198 48.3213 14.0456 48.3213 14.1093C48.3213 14.2239 51.8811 15.9939 51.9582 15.9175C51.9968 15.8793 52.3695 15.1535 52.8064 14.3003L53.5904 12.734L51.7912 11.8426C50.8016 11.3587 49.9663 10.9512 49.9277 10.9512C49.8892 10.9512 49.5165 11.6389 49.0924 12.4793Z" fill="#FAFAFA"/>
<path d="M6.87542 17.0636L5.33325 18.5917L6.65695 19.8905L7.96779 21.2021L9.50996 19.6741L11.0521 18.146L9.72843 16.8344L8.41759 15.5355L6.87542 17.0636Z" fill="#FAFAFA"/>
<path d="M55.1968 16.8091L53.9116 18.0825L55.4538 19.6106L56.996 21.1387L58.2811 19.8653L59.5662 18.5919L58.0241 17.0638L56.4819 15.5357L55.1968 16.8091Z" fill="#FAFAFA"/>
<path d="M30.0723 16.8088C23.7622 17.5856 18.3518 20.7436 14.7149 25.7991C13.8924 26.9324 12.7871 28.8935 12.3502 30.0141L12.0803 30.689H17.1438C21.4361 30.689 22.2201 30.6635 22.3614 30.498C22.5799 30.2433 24.8289 28.7534 26.6024 27.6837C28.453 26.5759 29.494 25.6463 29.5968 25.0223C29.7639 24.029 29.2369 22.3227 28.2602 20.5908C27.9261 20.0051 27.8233 19.7122 27.9261 19.674C28.7743 19.3811 30.3936 19.2028 32.1285 19.1901C33.8763 19.1901 35.9582 19.3811 36.2795 19.5721C36.3438 19.6103 36.1639 19.8777 35.894 20.1706C35.6112 20.4508 35.2514 20.8583 35.0972 21.0747C34.8273 21.4313 34.8273 21.4568 35.0458 21.5332C35.1743 21.5841 35.4827 21.635 35.7398 21.635C36.4466 21.6478 37.359 22.0171 37.706 22.4245C38.2072 23.0103 38.2586 23.7871 37.9116 25.2133C37.4747 27.0215 37.4361 27.5818 37.7703 27.7474C37.9759 27.862 38.1944 27.8365 38.7727 27.6328C40.0707 27.1744 39.9679 27.1616 39.9679 27.7856C39.9679 28.435 39.7365 28.7279 38.3357 29.8358C37.8217 30.2433 37.3976 30.5998 37.3976 30.6253C37.3976 30.6635 40.8032 30.689 44.9799 30.689H52.5622L52.2924 30.0141C51.3414 27.6073 49.6321 25.1114 47.4859 22.9848C44.2088 19.7249 40.3277 17.7511 35.7912 16.9871C34.3518 16.7579 31.3446 16.656 30.0723 16.8088Z" fill="#FAFAFA"/>
<path d="M20.3308 34.7259C20.3565 34.9041 20.5236 34.9678 21.1148 34.9933L21.8473 35.0315V36.9925V38.9663H22.1686H22.4899V36.9925V35.0187H23.1967C23.8135 35.0187 23.9035 34.9933 23.9035 34.7641C23.9035 34.5221 23.8135 34.5094 22.0915 34.5094C20.4465 34.5094 20.2923 34.5348 20.3308 34.7259Z" fill="#FAFAFA"/>
<path d="M24.7261 36.7251L24.739 38.9663H25.0603C25.3944 38.9663 25.3944 38.9536 25.343 38.1386C25.2916 37.3236 25.2916 37.3109 25.6129 37.3109C25.8699 37.3109 26.0755 37.4891 26.5382 38.1386C27.0522 38.839 27.1936 38.9663 27.5149 38.9663C27.9647 38.9663 27.9647 38.979 27.1294 37.8966C26.5639 37.1581 26.5639 37.1453 26.8209 36.9416C27.4506 36.4322 27.5663 35.5154 27.0651 34.9296C26.7824 34.6112 26.6667 34.573 25.7286 34.5348L24.7004 34.4839L24.7261 36.7251ZM26.4996 35.2352C26.6282 35.3498 26.731 35.6172 26.731 35.8592C26.731 36.3558 26.2426 36.8015 25.69 36.8015H25.3173V35.9101V35.0187H25.7928C26.0498 35.0187 26.3711 35.1079 26.4996 35.2352Z" fill="#FAFAFA"/>
<path d="M28.7871 36.7378V38.9663H29.1469H29.4939L29.4554 36.7378L29.4168 34.5094H29.1084H28.7871V36.7378Z" fill="#FAFAFA"/>
<path d="M30.946 36.7378L30.9846 38.9663H31.293C31.6014 38.9663 31.6143 38.9281 31.6143 38.1513V37.3363L32.0898 37.2472C32.7966 37.1199 33.2593 36.8397 33.4778 36.4195C33.7091 35.9738 33.7219 35.6554 33.5163 35.2098C33.2978 34.7131 32.7709 34.5094 31.7814 34.5094H30.9075L30.946 36.7378ZM32.7709 35.2734C33.2464 35.7446 33.0408 36.4322 32.3725 36.6614C31.64 36.9161 31.6143 36.8779 31.6143 35.9101V35.0187H32.0641C32.3468 35.0187 32.6167 35.1206 32.7709 35.2734Z" fill="#FAFAFA"/>
<path d="M34.75 34.7895C34.7886 34.9551 34.8271 35.9611 34.8271 37.018V38.9663H35.1484C35.4569 38.9663 35.4569 38.9536 35.3797 38.1513L35.3026 37.3491L35.9195 37.2599C36.3436 37.1963 36.6649 37.0435 36.9862 36.7378C37.3974 36.3686 37.4617 36.2412 37.4488 35.7701C37.436 35.3244 37.346 35.1588 37.0247 34.8659C36.6649 34.5476 36.5364 34.5094 35.6496 34.5094C34.6986 34.5094 34.6729 34.5221 34.75 34.7895ZM36.5621 35.2734C37.0761 35.8337 36.652 36.6742 35.8424 36.7124L35.4055 36.7378L35.3669 35.8719L35.3283 35.0187H35.8295C36.1637 35.0187 36.4079 35.1079 36.5621 35.2734Z" fill="#FAFAFA"/>
<path d="M38.5285 36.7378L38.5671 38.9663H38.8755H39.1968V36.7378V34.5094H38.8498H38.49L38.5285 36.7378Z" fill="#FAFAFA"/>
<path d="M40.6618 34.9041C40.7004 35.1206 40.7389 36.1266 40.7389 37.1326C40.7389 38.8772 40.7518 38.9663 40.9959 38.9663C41.2401 38.9663 41.253 38.8772 41.253 37.3363C41.2658 36.0247 41.2915 35.7573 41.42 35.9229C41.9855 36.6614 44.1702 38.9663 44.3116 38.9663C44.4273 38.9663 44.4658 38.4315 44.4658 36.7378V34.5094H44.1445H43.8361L43.7976 36.0247L43.759 37.5274L42.4096 36.0247C40.9959 34.4457 40.5076 34.1274 40.6618 34.9041Z" fill="#FAFAFA"/>
<path d="M11.2321 42.748C11.2707 42.8753 11.3863 43.3337 11.502 43.7794C12.3373 47.0648 14.3936 50.5794 16.9767 53.1899C23.0683 59.3277 32.2056 61.2506 40.2249 58.0925C43.0651 56.9719 45.4554 55.3929 47.6402 53.2027C49.4779 51.3562 50.4546 50.0191 51.5984 47.7779C52.241 46.53 53.192 43.9577 53.3719 42.939L53.449 42.5315H52.2024H50.943L50.6345 43.5757C48.6683 50.363 42.8851 55.5203 35.7269 56.8573C34.2104 57.1502 30.702 57.1884 29.3655 56.9337C27.6434 56.6154 26.3968 56.2588 25.0345 55.7113C19.8683 53.6101 15.8972 49.3442 14.1751 44.0341L13.6867 42.5315H12.4273C11.2835 42.5315 11.1679 42.557 11.2321 42.748Z" fill="#FAFAFA"/>
<path d="M19.02 43.3594V44.1871L21.1148 46.3137C23.4281 48.6823 24.1863 49.7392 24.7389 51.3819C24.9317 51.9422 25.1373 52.8718 25.1887 53.4576C25.2401 54.0433 25.3301 54.5654 25.3943 54.6164C25.5999 54.7946 26.6281 55.0366 26.7309 54.922C26.7823 54.871 26.9108 54.298 27.0264 53.6486C27.3734 51.5602 28.7742 49.1025 30.9204 46.8358C31.3574 46.3774 31.9614 45.677 32.2441 45.295C32.771 44.6074 33.2851 43.3849 33.2851 42.8246V42.5317H26.1525H19.02V43.3594Z" fill="#FAFAFA"/>
<path d="M43.8232 42.6844C43.8232 43.1046 44.6586 45.2694 45.0184 45.8042C45.4425 46.4155 45.751 46.6319 45.751 46.3263C45.751 46.008 46.4963 44.6072 47.1004 43.7922C48.1285 42.4042 48.2441 42.5316 45.8795 42.5316C44.3244 42.5316 43.8232 42.5698 43.8232 42.6844Z" fill="#FAFAFA"/>
<path d="M24.0577 62.6388C23.8136 62.7916 23.6979 63.4028 23.7493 64.3833C23.7879 64.9182 23.8521 65.1983 23.9421 65.1601C24.032 65.1347 24.0706 64.8545 24.0449 64.4597C24.0192 63.874 24.0449 63.7848 24.3019 63.6957L24.5975 63.5811L24.3148 63.5174C23.9806 63.4283 23.9421 63.1354 24.2505 62.8935C24.3662 62.7916 24.4818 62.7279 24.5075 62.7406C24.5204 62.7661 24.5847 62.7788 24.6489 62.7788C24.7517 62.7788 24.3919 62.5242 24.2891 62.5242C24.2505 62.5242 24.1477 62.5751 24.0577 62.6388Z" fill="#FAFAFA"/>
<path d="M28.3372 62.6898C28.2987 62.7789 28.273 63.3647 28.2987 63.9632C28.3501 65.4785 28.5943 65.3512 28.5943 63.8231C28.5943 62.7025 28.4914 62.2695 28.3372 62.6898Z" fill="#FAFAFA"/>
<path d="M31.5887 62.6005C31.4345 62.7406 31.4602 65.1982 31.6144 65.1982C31.6915 65.1982 31.7429 64.9181 31.7429 64.5743C31.7429 63.9248 31.9743 63.581 32.3084 63.7084C32.4369 63.7593 32.514 64.014 32.5397 64.4597C32.5911 65.3383 32.8225 65.3383 32.8739 64.4597C32.9253 63.6065 32.7582 63.3645 32.1799 63.4791C31.7686 63.5555 31.7558 63.5428 31.7172 63.0207C31.6915 62.7406 31.6401 62.5496 31.5887 62.6005Z" fill="#FAFAFA"/>
<path d="M38.7083 62.919C38.734 62.9955 38.8111 63.0464 38.8754 63.0464C38.9396 63.0464 39.0168 62.9955 39.0425 62.919C39.0682 62.8426 38.9911 62.779 38.8754 62.779C38.7597 62.779 38.6826 62.8426 38.7083 62.919Z" fill="#FAFAFA"/>
<path d="M30.1751 63.3773C30.098 63.7975 30.2779 64.9563 30.445 65.0709C30.6506 65.1855 31.1004 65.0964 31.1004 64.9308C31.1004 64.8672 30.9848 64.8162 30.8563 64.8162C30.3807 64.8162 30.2908 63.8612 30.7534 63.6702C30.9719 63.581 30.9848 63.5556 30.8177 63.5556C30.6892 63.5428 30.5864 63.4537 30.5864 63.3518C30.5864 63.0844 30.2265 63.1099 30.1751 63.3773Z" fill="#FAFAFA"/>
<path d="M36.1637 63.3139C36.0609 63.4795 36.0737 64.4854 36.1894 64.842C36.2665 65.0839 36.5492 65.224 36.8191 65.1221C37.1019 65.0075 37.0505 64.8165 36.7549 64.8165C36.5364 64.8165 36.4978 64.7274 36.4978 64.2562C36.4978 63.8233 36.5492 63.6705 36.7292 63.6323C36.9348 63.5813 36.9348 63.5686 36.7292 63.5559C36.6007 63.5559 36.4978 63.454 36.4978 63.3521C36.4978 63.1229 36.2922 63.0974 36.1637 63.3139Z" fill="#FAFAFA"/>
<path d="M25.0215 63.6446C24.7259 63.963 24.7388 64.727 25.0344 64.9817C25.2785 65.2109 25.5484 65.2491 25.8826 65.1218C26.2296 64.9817 26.101 64.8162 25.7155 64.8926C25.4199 64.9562 25.3042 64.918 25.2014 64.7143C24.9958 64.3323 25.0087 64.3068 25.5741 64.3068C25.9982 64.3068 26.0882 64.2686 26.0882 64.0648C26.0882 63.7592 25.754 63.4154 25.4585 63.4154C25.33 63.4154 25.1372 63.5173 25.0215 63.6446ZM25.754 63.8611C25.8055 64.0012 25.7283 64.0521 25.4456 64.0521C25.1629 64.0521 25.0858 64.0012 25.1372 63.8611C25.1886 63.7592 25.3171 63.6701 25.4456 63.6701C25.5741 63.6701 25.7026 63.7592 25.754 63.8611Z" fill="#FAFAFA"/>
<path d="M26.7308 63.6701C26.4223 63.9757 26.3966 64.5233 26.6793 64.9181C26.9107 65.2492 27.3476 65.2874 27.7075 65.0072C27.9388 64.8162 27.9259 64.8035 27.5532 64.8799C27.2705 64.9308 27.0906 64.8926 26.9364 64.7525C26.6151 64.4214 26.6922 64.3068 27.2448 64.3068C27.6946 64.3068 27.7589 64.2686 27.7589 64.0139C27.7589 63.4154 27.1806 63.2244 26.7308 63.6701ZM27.4761 63.8866C27.5018 63.9885 27.399 64.0522 27.1934 64.0522C26.8721 64.0522 26.7693 63.9248 26.9492 63.7465C27.0777 63.6192 27.4119 63.7083 27.4761 63.8866Z" fill="#FAFAFA"/>
<path d="M33.6449 63.6319C32.9767 64.3832 33.5293 65.4274 34.4289 65.1346C34.8273 65.0199 34.763 64.778 34.3646 64.8671C34.0048 64.9563 33.6706 64.778 33.6706 64.4851C33.6706 64.3578 33.8377 64.3068 34.1847 64.3068C34.6088 64.3068 34.6987 64.2686 34.6987 64.0649C34.6987 63.5046 34.0048 63.2244 33.6449 63.6319ZM34.3132 63.8611C34.3132 63.9758 34.1975 64.0522 33.9919 64.0522C33.6835 64.0522 33.5807 63.9248 33.7606 63.7593C33.9148 63.5937 34.3132 63.6701 34.3132 63.8611Z" fill="#FAFAFA"/>
<path d="M37.3975 64.3069C37.3975 64.8162 37.4489 65.1982 37.526 65.1982C37.6031 65.1982 37.6545 64.9436 37.6545 64.6507C37.6545 64.2432 37.7316 64.0267 37.9244 63.8484C38.0786 63.7211 38.2328 63.6192 38.2714 63.6447C38.3228 63.6702 38.3742 63.6319 38.3999 63.5555C38.4641 63.3773 38.22 63.3773 37.8987 63.5428C37.7316 63.6319 37.6545 63.6319 37.6545 63.5428C37.6545 63.4791 37.6031 63.4155 37.526 63.4155C37.4489 63.4155 37.3975 63.7975 37.3975 64.3069Z" fill="#FAFAFA"/>
<path d="M38.7083 64.2686C38.734 64.8034 38.8111 65.1345 38.9139 65.1727C39.0296 65.2109 39.0681 64.9817 39.0681 64.3195C39.0681 63.5937 39.0296 63.4154 38.8753 63.4154C38.7083 63.4154 38.6826 63.5682 38.7083 64.2686Z" fill="#FAFAFA"/>
<path d="M39.7107 64.7145C39.7107 65.4658 39.7621 65.9624 39.8392 65.9624C39.9163 65.9624 39.9677 65.7969 39.9677 65.5931C39.9677 65.2748 40.032 65.1984 40.3533 65.1347C41.0344 64.9819 41.33 64.2688 40.9316 63.7085C40.7774 63.492 40.6103 63.4283 40.2247 63.4538L39.7107 63.4665V64.7145ZM40.7131 64.1542C40.7645 64.6381 40.5589 64.9437 40.2119 64.9437C40.0063 64.9437 39.9677 64.8418 39.9677 64.3834C39.9677 63.8231 40.0962 63.6575 40.4818 63.7085C40.5974 63.7212 40.6874 63.8995 40.7131 64.1542Z" fill="#FAFAFA"/>
</svg>
